<svg xmlns="http://www.w3.org/2000/svg" width="1200" height="760" viewBox="0 0 1200 760">
  <rect width="1200" height="760" fill="#0f172a"/>
  <text x="600" y="55" text-anchor="middle" font-family="Arial" font-size="34" font-weight="700" fill="#f8fafc">Agent-Teams Overview</text>
  <text x="600" y="90" text-anchor="middle" font-family="Arial" font-size="18" fill="#cbd5e1">PM Orchestrator điều phối specialist agents theo waves, gates, evidence</text>
  <rect x="430" y="125" width="340" height="90" rx="18" fill="#2563eb" stroke="#93c5fd" stroke-width="3"/>
  <text x="600" y="162" text-anchor="middle" font-family="Arial" font-size="24" font-weight="700" fill="white">PM Agent</text>
  <text x="600" y="193" text-anchor="middle" font-family="Arial" font-size="18" fill="#dbeafe">Orchestrator-only</text>
  <g font-family="Arial" font-size="17" font-weight="700" text-anchor="middle">
    <rect x="80" y="295" width="210" height="70" rx="14" fill="#1e293b" stroke="#38bdf8" stroke-width="2"/><text x="185" y="337" fill="#e0f2fe">Requirements</text>
    <rect x="330" y="295" width="210" height="70" rx="14" fill="#1e293b" stroke="#38bdf8" stroke-width="2"/><text x="435" y="337" fill="#e0f2fe">Architecture</text>
    <rect x="580" y="295" width="210" height="70" rx="14" fill="#1e293b" stroke="#38bdf8" stroke-width="2"/><text x="685" y="337" fill="#e0f2fe">API / Contract</text>
    <rect x="830" y="295" width="210" height="70" rx="14" fill="#1e293b" stroke="#38bdf8" stroke-width="2"/><text x="935" y="337" fill="#e0f2fe">UX / Design</text>
    <rect x="80" y="430" width="210" height="70" rx="14" fill="#1e293b" stroke="#22c55e" stroke-width="2"/><text x="185" y="472" fill="#dcfce7">Frontend</text>
    <rect x="330" y="430" width="210" height="70" rx="14" fill="#1e293b" stroke="#22c55e" stroke-width="2"/><text x="435" y="472" fill="#dcfce7">Backend</text>
    <rect x="580" y="430" width="210" height="70" rx="14" fill="#1e293b" stroke="#22c55e" stroke-width="2"/><text x="685" y="472" fill="#dcfce7">QA / Integration</text>
    <rect x="830" y="430" width="210" height="70" rx="14" fill="#1e293b" stroke="#22c55e" stroke-width="2"/><text x="935" y="472" fill="#dcfce7">Docs / Handoff</text>
    <rect x="205" y="565" width="210" height="70" rx="14" fill="#1e293b" stroke="#f59e0b" stroke-width="2"/><text x="310" y="607" fill="#fef3c7">Security</text>
    <rect x="495" y="565" width="210" height="70" rx="14" fill="#1e293b" stroke="#f59e0b" stroke-width="2"/><text x="600" y="607" fill="#fef3c7">Performance</text>
    <rect x="785" y="565" width="210" height="70" rx="14" fill="#1e293b" stroke="#f59e0b" stroke-width="2"/><text x="890" y="607" fill="#fef3c7">Challenge Review</text>
  </g>
  <g stroke="#94a3b8" stroke-width="2" marker-end="url(#arrow)">
    <defs><marker id="arrow" markerWidth="10" markerHeight="10" refX="8" refY="3" orient="auto"><path d="M0,0 L0,6 L9,3 z" fill="#94a3b8"/></marker></defs>
    <line x1="600" y1="215" x2="185" y2="295"/><line x1="600" y1="215" x2="435" y2="295"/><line x1="600" y1="215" x2="685" y2="295"/><line x1="600" y1="215" x2="935" y2="295"/>
    <line x1="600" y1="215" x2="185" y2="430"/><line x1="600" y1="215" x2="435" y2="430"/><line x1="600" y1="215" x2="685" y2="430"/><line x1="600" y1="215" x2="935" y2="430"/>
  </g>
  <text x="600" y="705" text-anchor="middle" font-family="Arial" font-size="20" fill="#cbd5e1">Rule: PM không code thay specialist. PM giao việc, kiểm gate, nhận evidence, quyết acceptance.</text>
</svg>
